<svg class="img-fluid" id="logo" xmlns="http://www.w3.org/2000/svg" width="1630" height="1012" viewBox="0 0 16300 10120"><g id="l7BPT5AW7vTfdBPj49A3S2Z" fill="rgb(254,254,254)" style="transform: none;"><g><path id="p1EGDDW0Ty" d="M7855 8290 c-254 -28 -454 -199 -538 -458 -30 -96 -30 -308 1 -400 60 -177 169 -310 313 -382 110 -56 175 -71 299 -71 141 0 234 27 337 97 l38 26 5 -49 5 -48 148 -3 147 -3 0 631 0 630 -150 0 -150 0 0 -335 c0 -392 2 -333 -17 -397 -18 -62 -68 -135 -124 -179 -146 -116 -381 -87 -498 62 -92 115 -105 264 -36 399 19 38 83 104 128 133 66 43 206 61 284 38 23 -7 35 -6 41 2 16 21 103 249 97 255 -14 14 -113 42 -169 47 -33 3 -70 7 -81 9 -11 1 -47 0 -80 -4z"></path><path id="pKv9mZaV9" d="M9340 8288 c-41 -4 -97 -15 -125 -24 -46 -15 -163 -71 -175 -84 -3 -3 -25 -20 -50 -39 -87 -66 -170 -193 -211 -324 -32 -103 -32 -263 0 -367 30 -97 59 -154 117 -226 201 -251 559 -321 840 -163 63 36 62 35 111 77 l32 28 -107 107 -107 106 -33 -29 c-51 -44 -134 -72 -218 -72 -174 1 -322 121 -354 289 -36 183 82 370 260 413 113 27 239 1 318 -65 l31 -26 106 107 105 108 -33 28 c-85 75 -234 142 -337 153 -30 3 -64 7 -75 9 -11 2 -54 -1 -95 -6z"></path><path id="pWuaBI1e3" d="M11210 8289 c-125 -14 -268 -73 -345 -142 -17 -15 -39 -35 -50 -45 -58 -51 -123 -158 -163 -267 -22 -60 -25 -88 -26 -195 -1 -139 11 -195 70 -310 75 -148 217 -270 375 -320 90 -29 112 -32 224 -32 282 0 521 180 617 464 28 85 31 274 5 363 -79 266 -294 455 -547 481 -30 3 -64 7 -75 8 -11 2 -49 0 -85 -5z m224 -329 c67 -34 143 -112 174 -179 21 -46 26 -72 26 -146 1 -78 -3 -98 -27 -151 -118 -255 -480 -278 -632 -40 -88 139 -67 325 50 440 85 83 144 106 270 103 72 -2 100 -8 139 -27z"></path><path id="pM0ufqkxa" d="M2422 7633 l3 -628 148 -3 147 -3 0 51 c0 44 12 66 22 42 2 -5 30 -25 63 -44 63 -39 135 -62 223 -73 l52 -7 0 151 c0 83 -2 151 -4 151 -2 0 -27 5 -56 10 -118 22 -210 92 -267 202 l-27 53 -4 363 -3 362 -150 0 -149 0 2 -627z"></path><path id="p5pQz40Mw" d="M3220 7385 l0 -875 590 0 590 0 0 150 0 150 -440 0 -440 0 2 210 3 210 322 1 c178 0 325 4 327 8 3 4 7 18 10 32 3 13 9 39 15 57 5 17 8 32 5 32 -3 0 0 8 5 18 5 9 11 31 14 47 3 17 10 44 15 60 17 58 30 56 -356 55 l-357 -1 -3 210 -2 211 440 0 440 0 0 116 0 116 148 -184 c81 -100 176 -218 211 -260 41 -50 60 -81 55 -90 -9 -15 -165 -211 -174 -218 -9 -7 -324 -402 -334 -417 -6 -10 34 -13 183 -13 l191 0 87 118 c49 64 93 122 99 127 6 6 42 52 80 103 l69 93 20 -24 c11 -13 44 -55 72 -93 29 -38 88 -115 130 -170 43 -56 87 -114 98 -128 l20 -27 191 3 192 3 -150 185 c-82 102 -195 241 -251 309 -139 170 -131 158 -112 177 8 9 104 127 213 262 108 136 207 258 219 272 13 14 23 28 23 32 0 5 -84 8 -188 8 l-187 0 -75 -98 c-41 -53 -104 -137 -140 -184 -36 -48 -69 -86 -75 -84 -5 1 -71 84 -145 184 l-135 180 -757 1 -758 1 0 -875z"></path><path id="p5eEj4oNA" d="M6114 8245 c-70 -22 -120 -53 -172 -105 -54 -54 -71 -81 -105 -170 -21 -54 -22 -69 -24 -625 -1 -313 1 -575 5 -582 4 -6 66 -25 137 -42 72 -18 138 -34 148 -37 16 -5 17 11 17 235 l0 240 87 3 87 3 37 148 37 147 -124 0 -124 0 0 208 c0 141 4 216 12 233 22 47 58 59 183 59 l113 0 36 145 c20 79 36 147 36 150 0 11 -346 3 -386 -10z"></path><path id="pFDxk146q" d="M6602 7633 l3 -628 150 0 150 0 1 40 c1 22 2 44 3 48 0 4 16 -3 34 -16 64 -49 180 -93 267 -103 l57 -6 1 150 0 150 -58 10 c-121 22 -219 97 -272 209 l-29 61 -2 354 -2 353 -153 3 -152 3 2 -628z"></path><path id="pQuPt8OjT" d="M10224 8240 c-141 -49 -244 -171 -274 -327 -5 -26 -9 -298 -10 -604 l0 -555 147 -36 c82 -20 151 -34 155 -31 4 2 7 108 7 236 l-1 232 92 3 c53 2 88 7 85 12 -3 5 -2 18 4 27 5 10 11 32 14 48 3 17 8 37 11 45 3 8 8 26 10 40 3 14 12 48 20 77 l14 52 -125 3 -125 3 2 214 c1 284 -3 278 195 280 l110 1 36 145 c20 80 33 147 30 150 -3 3 -82 5 -176 4 -134 -1 -181 -5 -221 -19z"></path><path id="pvNptwHM8" d="M12080 7630 l0 -630 150 0 150 0 0 50 c0 28 2 50 4 50 2 0 30 -18 62 -39 64 -42 157 -76 242 -86 l52 -7 0 151 c0 83 -2 151 -4 151 -2 0 -26 4 -55 10 -144 27 -250 124 -287 262 -10 40 -14 132 -14 386 l0 332 -150 0 -150 0 0 -630z"></path><path id="pTcOKj1dL" d="M5840 6089 c0 -5 9 -56 20 -112 11 -56 24 -124 30 -152 17 -90 214 -1108 330 -1700 32 -165 70 -363 85 -440 55 -291 69 -355 80 -354 5 1 174 0 375 -2 l365 -4 -375 -5 -375 -5 383 -3 c361 -2 383 -1 378 16 -6 22 -52 259 -66 342 -6 36 -13 73 -16 83 -6 18 9 19 403 14 438 -5 445 -6 602 -66 144 -55 304 -189 380 -319 64 -110 91 -211 98 -368 5 -117 4 -138 -16 -199 -42 -128 -97 -196 -207 -254 -129 -68 -165 -72 -610 -78 -386 -5 -402 -5 -407 13 -3 11 -24 117 -48 237 l-42 219 -30 -6 c-16 -3 -186 -6 -377 -6 l-348 0 5 -32 c2 -18 22 -121 43 -228 21 -107 66 -341 100 -520 34 -179 64 -331 66 -338 3 -11 152 -12 801 -9 829 4 853 5 1023 48 158 40 375 133 461 199 37 28 166 155 189 185 116 152 177 353 179 590 2 143 -18 311 -49 417 -11 36 -20 71 -20 78 0 15 -46 136 -66 172 -8 14 -14 31 -14 38 0 16 -96 175 -149 245 -70 94 -198 220 -291 290 -134 99 -225 151 -387 221 -28 12 -32 17 -24 36 11 29 324 738 451 1023 20 45 92 208 205 465 90 204 116 262 122 273 2 4 -197 7 -444 7 l-448 0 -329 -828 c-181 -455 -330 -828 -331 -830 -6 -7 -619 -2 -625 5 -4 4 -17 62 -29 128 -13 66 -40 208 -61 315 -21 107 -53 269 -70 360 -18 91 -56 287 -85 435 -29 149 -58 303 -65 343 l-13 72 -379 0 c-259 0 -378 -3 -378 -11z"></path></g></g><g id="l3G3D8FaoEZSHCckOMdGEYl" fill="rgb(235,28,36)" style="transform: none;"><g><path id="pAobSRvAs" d="M7114 3331 c5 -8 -91 -11 -363 -11 -204 0 -371 -3 -370 -7 0 -5 17 -93 38 -198 l37 -190 377 -3 c355 -2 377 -1 376 15 0 10 -17 103 -37 207 -25 127 -42 191 -51 194 -8 3 -11 0 -7 -7z"></path></g></g></svg>