<svg id="svg" version="1.1" xmlns="http://www.w3.org/2000/svg" xmlns:xlink="http://www.w3.org/1999/xlink" width="400" height="251.68067226890756" viewBox="0, 0, 400,251.68067226890756"><g id="svgg"><path id="path0" d="M166.226 0.710 C 165.372 0.804,164.629 0.938,164.574 1.007 C 164.435 1.184,160.541 21.027,159.214 28.320 C 158.987 29.566,158.537 31.945,158.213 33.606 C 157.890 35.267,157.433 37.703,157.199 39.018 C 156.964 40.334,156.676 41.796,156.558 42.267 C 156.440 42.739,156.390 43.200,156.447 43.292 C 156.504 43.384,162.645 43.409,170.094 43.348 C 179.004 43.274,183.958 43.325,184.574 43.496 L 185.511 43.757 185.672 42.835 C 186.193 39.861,188.606 27.936,188.826 27.250 L 189.089 26.432 201.593 26.430 C 220.674 26.429,224.242 26.893,229.193 30.019 C 232.588 32.163,234.158 34.069,235.773 38.011 L 236.753 40.403 236.730 45.376 C 236.706 50.452,236.598 51.318,235.472 55.446 C 232.849 65.056,222.321 73.952,211.705 75.526 C 209.764 75.814,182.512 76.292,180.531 76.073 L 179.437 75.952 179.599 74.792 C 179.688 74.153,179.976 72.555,180.239 71.240 C 180.503 69.924,180.848 68.169,181.008 67.338 C 181.437 65.094,181.689 63.813,182.205 61.245 C 182.461 59.971,182.579 58.985,182.466 59.055 C 182.354 59.124,175.941 59.173,168.217 59.163 C 152.693 59.143,153.451 59.061,153.039 60.800 C 152.536 62.924,150.491 73.285,148.619 83.197 C 148.279 84.997,147.897 86.979,147.770 87.602 C 147.643 88.225,147.076 91.171,146.510 94.147 C 145.943 97.124,145.380 100.013,145.259 100.566 C 145.137 101.120,144.919 102.196,144.773 102.958 C 144.130 106.315,143.714 108.459,143.477 109.629 C 143.137 111.310,141.386 120.368,140.582 124.607 C 140.227 126.476,139.831 128.458,139.702 129.012 C 139.573 129.566,139.006 132.454,138.443 135.431 C 137.881 138.408,137.036 142.769,136.566 145.123 C 135.231 151.809,133.133 162.829,132.793 164.939 C 132.586 166.223,131.817 166.158,147.754 166.217 L 161.712 166.268 161.902 165.261 C 162.007 164.707,162.203 163.744,162.339 163.121 C 162.474 162.498,162.770 160.969,162.995 159.723 C 163.221 158.477,163.618 156.381,163.877 155.066 C 164.136 153.751,164.531 151.655,164.754 150.409 C 164.978 149.163,165.264 147.690,165.391 147.137 C 165.518 146.583,165.973 144.261,166.404 141.976 C 166.834 139.692,167.564 135.897,168.026 133.543 C 168.488 131.189,169.443 126.318,170.147 122.719 C 170.852 119.119,171.996 113.285,172.688 109.755 C 173.380 106.224,174.049 103.099,174.174 102.809 C 174.411 102.261,192.783 101.751,196.977 102.176 L 198.486 102.329 199.406 104.594 C 199.911 105.840,200.460 107.199,200.624 107.615 C 200.789 108.030,201.024 108.597,201.146 108.874 C 201.269 109.150,201.718 110.283,202.144 111.391 C 202.570 112.498,203.071 113.744,203.256 114.160 C 203.713 115.182,212.174 136.480,217.857 150.913 C 219.329 154.651,220.658 157.992,220.810 158.339 C 221.116 159.033,221.062 158.900,222.523 162.618 C 223.095 164.072,223.698 165.534,223.864 165.868 L 224.166 166.474 240.654 166.300 C 249.723 166.203,257.438 166.062,257.799 165.985 L 258.456 165.846 257.881 164.672 C 257.564 164.027,256.097 160.780,254.620 157.458 C 253.143 154.135,251.730 150.963,251.480 150.409 C 251.230 149.855,249.248 145.381,247.075 140.466 C 244.903 135.551,242.796 130.813,242.394 129.938 C 241.991 129.063,241.661 128.307,241.661 128.257 C 241.661 128.208,240.744 126.091,239.623 123.555 C 238.502 121.018,237.361 118.433,237.088 117.810 C 236.814 117.187,236.438 116.337,236.253 115.922 C 235.171 113.506,230.000 101.731,229.205 99.878 C 228.001 97.067,227.842 97.294,232.647 94.952 C 254.912 84.098,266.832 65.197,266.866 40.696 C 266.888 24.665,260.490 13.591,247.416 7.031 C 241.159 3.891,233.061 1.540,226.683 1.012 C 222.992 0.706,168.723 0.435,166.226 0.710 M31.331 182.568 C 31.265 182.741,31.240 197.892,31.276 216.237 L 31.340 249.591 60.583 249.655 L 89.826 249.719 91.546 247.413 C 101.103 234.602,100.538 235.196,101.762 236.656 C 102.155 237.125,104.021 239.547,105.909 242.039 C 107.796 244.531,109.413 246.627,109.502 246.696 C 109.591 246.765,110.141 247.473,110.724 248.269 L 111.784 249.717 118.810 249.717 C 123.414 249.717,125.892 249.626,125.998 249.454 C 126.135 249.232,125.010 247.625,123.930 246.500 C 123.760 246.323,122.629 244.907,121.418 243.353 C 120.206 241.800,119.150 240.472,119.071 240.403 C 118.992 240.334,117.845 238.918,116.522 237.256 C 115.199 235.595,113.674 233.712,113.132 233.073 C 112.590 232.433,111.976 231.694,111.768 231.431 C 111.561 231.167,110.739 230.139,109.943 229.146 C 107.909 226.608,107.369 227.656,116.246 216.907 C 117.394 215.517,118.640 213.987,119.015 213.507 C 120.426 211.703,123.974 207.295,124.114 207.174 C 124.607 206.747,128.131 202.161,128.131 201.946 C 128.131 201.704,114.567 201.352,113.908 201.577 C 113.770 201.624,113.129 202.365,112.485 203.223 C 111.841 204.081,110.274 206.142,109.003 207.804 C 107.733 209.465,105.571 212.304,104.199 214.113 C 102.827 215.922,101.449 217.642,101.136 217.934 L 100.566 218.467 98.301 215.426 C 97.055 213.754,95.412 211.631,94.651 210.710 C 93.889 209.788,92.020 207.370,90.497 205.337 L 87.728 201.640 80.806 201.642 C 72.455 201.644,72.821 201.487,74.957 204.154 C 75.889 205.318,77.505 207.352,78.549 208.673 C 79.592 209.995,80.637 211.303,80.872 211.580 C 81.108 211.857,82.520 213.593,84.011 215.439 C 94.253 228.122,93.322 226.635,92.092 228.345 C 91.404 229.303,88.466 232.994,88.106 233.354 C 88.037 233.424,87.074 234.613,85.966 235.997 C 84.858 237.382,83.744 238.741,83.490 239.018 C 83.235 239.295,82.278 240.485,81.362 241.661 C 78.726 245.049,77.094 246.928,76.930 246.764 C 76.846 246.680,76.778 244.763,76.778 242.502 L 76.778 238.392 59.849 238.328 L 42.920 238.263 42.843 232.222 C 42.800 228.899,42.838 225.253,42.927 224.121 L 43.088 222.061 56.526 221.981 C 72.948 221.883,71.308 222.533,69.743 216.740 C 69.500 215.840,69.095 214.198,68.843 213.090 C 68.591 211.982,68.287 210.878,68.167 210.636 C 67.964 210.225,67.113 210.195,55.638 210.195 C 46.063 210.195,43.283 210.125,43.129 209.880 C 43.020 209.707,42.887 206.027,42.834 201.701 L 42.737 193.836 59.695 193.771 L 76.652 193.707 76.720 187.980 L 76.787 182.253 54.119 182.253 C 36.216 182.253,31.425 182.319,31.331 182.568 M138.074 190.079 C 135.997 190.627,133.850 191.192,133.301 191.335 C 132.753 191.477,132.176 191.700,132.020 191.830 C 131.587 192.189,131.396 207.574,131.627 223.411 L 131.826 237.004 132.630 239.055 C 134.577 244.022,138.107 247.490,142.857 249.102 C 144.122 249.531,156.753 249.993,157.664 249.643 C 157.983 249.521,157.983 249.318,157.663 248.037 C 157.461 247.230,157.135 245.890,156.938 245.060 C 156.742 244.229,156.461 243.096,156.313 242.542 C 156.058 241.587,155.721 240.205,155.437 238.955 C 155.313 238.410,155.204 238.389,152.562 238.389 C 147.575 238.389,145.004 237.821,144.160 236.533 C 143.567 235.627,143.235 231.400,143.235 224.733 L 143.235 219.006 148.018 219.006 C 151.462 219.006,152.801 218.924,152.801 218.715 C 152.801 218.083,150.212 208.035,149.973 207.741 C 149.815 207.545,149.075 207.426,148.024 207.426 C 147.092 207.426,145.634 207.353,144.785 207.265 L 143.241 207.103 143.175 198.139 L 143.109 189.176 142.480 189.129 C 142.133 189.104,140.151 189.532,138.074 190.079 M300.692 189.321 C 296.891 190.187,294.021 190.859,293.266 191.062 C 292.782 191.191,292.126 191.367,291.809 191.453 L 291.232 191.607 291.310 214.180 L 291.387 236.753 291.972 238.389 C 293.684 243.180,296.192 246.152,300.217 248.163 C 302.886 249.497,304.464 249.717,311.348 249.717 L 317.181 249.717 317.181 248.721 C 317.181 247.887,316.481 244.675,315.423 240.654 C 315.296 240.170,315.127 239.462,315.049 239.081 C 314.929 238.504,314.770 238.386,314.092 238.369 C 302.514 238.089,303.242 238.826,303.128 227.270 L 303.047 219.046 307.702 218.963 C 312.595 218.876,312.832 218.832,312.440 218.086 C 312.305 217.830,311.722 215.697,311.143 213.346 C 309.535 206.818,309.882 207.183,305.286 207.177 L 303.084 207.174 303.054 200.692 C 303.000 188.753,303.008 188.793,300.692 189.321 M24.544 200.064 C 20.460 200.507,14.753 202.707,12.914 204.545 C 12.290 205.169,11.831 204.403,11.831 202.736 C 11.831 200.995,12.085 201.058,5.901 201.268 L 0.503 201.451 0.503 225.584 L 0.503 249.717 6.128 249.717 L 11.752 249.717 11.932 235.708 C 12.133 220.051,11.954 221.507,14.065 218.329 C 16.303 214.959,21.409 211.705,24.457 211.705 C 25.689 211.705,25.677 211.764,25.677 205.778 C 25.677 202.686,25.592 200.117,25.488 200.069 C 25.384 200.021,24.959 200.019,24.544 200.064 M185.777 200.143 C 182.419 200.550,178.191 202.116,175.537 203.936 C 173.934 205.034,173.694 204.863,173.694 202.623 L 173.694 201.385 167.904 201.385 L 162.115 201.385 162.055 220.894 C 162.022 231.624,161.994 242.470,161.992 244.997 L 161.989 249.591 167.778 249.591 L 173.568 249.591 173.750 235.816 L 173.932 222.042 174.851 220.209 C 176.596 216.732,178.999 214.360,182.260 212.896 C 183.506 212.336,184.530 212.049,186.973 211.573 L 187.791 211.414 187.791 205.797 C 187.791 199.500,187.927 199.882,185.777 200.143 M398.238 200.053 C 394.281 200.548,391.048 201.656,387.850 203.614 C 385.526 205.037,385.438 205.014,385.348 202.958 L 385.274 201.259 379.610 201.259 L 373.946 201.259 373.946 225.425 L 373.946 249.591 379.610 249.591 L 385.274 249.591 385.424 236.375 C 385.588 221.880,385.554 222.209,387.211 218.948 C 388.892 215.640,392.833 212.788,396.853 211.969 C 399.302 211.470,399.110 211.979,399.187 205.780 C 399.258 200.017,399.243 199.927,398.238 200.053 M268.093 200.426 C 252.171 202.118,241.693 217.883,246.374 233.103 C 251.846 250.890,273.543 256.821,287.917 244.459 C 288.724 243.765,288.837 243.932,284.586 239.546 C 280.732 235.570,280.701 235.545,280.126 235.966 C 276.348 238.732,274.800 239.261,270.485 239.260 C 258.103 239.258,252.160 224.384,261.081 215.727 C 261.648 215.176,262.163 214.726,262.225 214.726 C 262.286 214.726,262.698 214.458,263.138 214.129 C 267.270 211.050,274.654 211.263,279.008 214.586 C 280.544 215.759,280.077 216.009,284.549 211.623 C 288.069 208.172,288.904 207.179,288.295 207.172 C 288.191 207.171,287.709 206.797,287.225 206.341 C 285.396 204.622,280.600 201.953,278.540 201.508 C 278.125 201.419,277.558 201.252,277.281 201.138 C 275.742 200.505,270.890 200.129,268.093 200.426 M208.307 200.743 C 203.139 201.628,197.214 205.308,194.156 209.531 C 193.641 210.242,193.160 210.881,193.086 210.950 C 193.012 211.020,192.746 211.416,192.494 211.831 C 188.073 219.135,187.531 228.693,191.081 236.753 C 196.117 248.188,209.107 253.717,221.460 249.686 C 223.471 249.030,223.464 248.929,221.037 242.794 C 219.409 238.681,219.500 238.769,217.308 239.182 C 208.230 240.892,200.378 234.646,200.378 225.717 C 200.378 217.374,206.776 211.530,215.356 212.037 C 220.961 212.368,224.708 215.231,227.276 221.145 L 227.932 222.656 228.063 236.123 L 228.194 249.591 233.858 249.591 L 239.522 249.591 239.522 225.425 L 239.522 201.259 233.984 201.350 C 227.814 201.451,228.078 201.363,228.072 203.321 C 228.067 204.975,227.824 205.111,226.497 204.202 C 221.668 200.894,214.918 199.610,208.307 200.743 M336.816 200.980 C 328.710 203.223,322.775 208.221,319.598 215.481 C 319.204 216.381,318.794 217.296,318.686 217.514 C 317.511 219.894,317.327 229.529,318.398 232.599 C 321.674 241.991,327.151 247.439,335.935 250.043 C 343.383 252.251,352.020 250.708,357.961 246.109 C 367.815 238.480,370.938 225.678,365.679 214.475 C 360.818 204.118,347.677 197.975,336.816 200.980 M347.388 212.565 C 351.451 214.015,354.405 216.942,356.171 221.271 C 356.752 222.696,356.651 228.592,356.017 230.233 C 351.277 242.500,334.152 242.383,329.721 230.053 C 329.029 228.125,328.888 223.300,329.480 221.775 C 332.491 214.019,340.263 210.022,347.388 212.565 " stroke="none" fill="#fefefe" fill-rule="evenodd"></path><path id="path1" d="M0.000 125.865 L 0.000 251.731 200.000 251.731 L 400.000 251.731 400.000 125.865 L 400.000 0.000 200.000 0.000 L 0.000 0.000 0.000 125.865 M228.697 1.100 C 246.270 3.473,260.464 13.126,264.692 25.580 C 266.529 30.992,266.941 33.787,266.931 40.780 C 266.912 54.036,264.130 63.749,257.364 74.189 C 255.233 77.477,254.941 77.827,250.600 82.270 C 245.247 87.749,239.912 91.529,232.210 95.298 C 230.070 96.345,228.320 97.285,228.320 97.388 C 228.320 97.650,234.193 111.146,236.551 116.300 C 236.899 117.061,237.386 118.194,237.633 118.817 C 237.881 119.440,238.420 120.686,238.832 121.586 C 239.245 122.486,240.174 124.581,240.896 126.243 C 241.619 127.904,242.443 129.773,242.726 130.396 C 243.010 131.020,243.860 132.945,244.615 134.676 C 245.370 136.407,246.192 138.276,246.444 138.829 C 246.695 139.383,247.828 141.932,248.962 144.493 C 250.095 147.055,251.234 149.615,251.492 150.182 C 251.749 150.750,252.405 152.222,252.949 153.455 C 254.507 156.983,256.901 162.319,258.021 164.758 C 258.319 165.407,258.397 165.854,258.241 166.016 C 257.801 166.474,224.011 166.351,223.783 165.890 C 223.431 165.183,223.049 164.256,222.278 162.240 C 221.854 161.133,221.409 160.000,221.289 159.723 C 220.642 158.232,220.249 157.254,219.517 155.318 C 219.072 154.141,218.557 152.838,218.371 152.423 C 218.186 152.008,217.287 149.742,216.373 147.388 C 215.459 145.035,214.607 142.882,214.478 142.605 C 214.350 142.329,213.493 140.176,212.573 137.823 C 210.479 132.463,203.468 114.837,203.161 114.160 C 203.036 113.883,202.466 112.467,201.894 111.013 C 201.323 109.559,200.757 108.143,200.636 107.867 C 200.515 107.590,199.963 106.230,199.408 104.846 L 198.400 102.329 186.563 102.329 C 177.892 102.329,174.647 102.407,174.433 102.622 C 174.181 102.874,172.328 111.823,170.037 123.851 C 169.681 125.721,169.283 127.703,169.154 128.257 C 168.946 129.144,168.045 133.702,167.735 135.431 C 167.673 135.777,167.458 136.910,167.257 137.948 C 167.056 138.987,166.783 140.403,166.650 141.095 C 166.517 141.787,166.234 143.260,166.020 144.368 C 165.807 145.475,165.524 146.948,165.391 147.640 C 164.802 150.711,164.355 153.020,164.124 154.185 C 163.987 154.877,163.716 156.293,163.522 157.332 C 163.328 158.370,162.856 160.834,162.474 162.807 L 161.780 166.394 148.920 166.365 C 134.028 166.330,132.823 166.264,132.710 165.466 C 132.633 164.930,133.079 162.412,134.797 153.682 C 135.260 151.328,136.107 146.967,136.678 143.990 C 137.250 141.013,137.819 138.125,137.944 137.571 C 138.068 137.017,138.466 134.978,138.827 133.040 C 139.189 131.101,139.588 129.062,139.715 128.508 C 139.841 127.955,140.296 125.632,140.726 123.348 C 141.156 121.064,141.683 118.345,141.899 117.306 C 142.114 116.268,142.387 114.909,142.503 114.286 C 142.620 113.663,142.878 112.303,143.077 111.265 C 143.275 110.227,143.673 108.131,143.960 106.608 C 144.248 105.085,144.594 103.329,144.729 102.706 C 144.864 102.083,145.551 98.571,146.256 94.902 C 147.504 88.403,148.014 85.773,148.525 83.197 C 148.663 82.505,149.229 79.503,149.785 76.526 C 150.340 73.549,150.903 70.661,151.035 70.107 C 151.167 69.553,151.624 67.308,152.050 65.118 C 152.476 62.928,152.961 60.719,153.128 60.210 L 153.432 59.283 164.255 59.153 L 175.079 59.023 165.890 58.937 C 160.837 58.889,156.023 58.778,155.192 58.689 L 153.682 58.527 153.743 57.395 C 153.777 56.772,153.915 55.809,154.050 55.255 C 154.339 54.066,156.088 44.762,156.700 41.158 C 156.935 39.773,157.225 38.244,157.343 37.760 C 157.461 37.275,157.852 35.236,158.212 33.228 C 158.804 29.933,159.026 28.755,159.850 24.544 C 159.985 23.851,160.268 22.322,160.478 21.145 C 160.689 19.969,160.971 18.439,161.107 17.747 C 161.618 15.132,162.088 12.690,162.196 12.083 C 162.725 9.115,164.448 1.098,164.584 0.968 C 165.013 0.562,167.443 0.535,195.846 0.628 C 220.631 0.709,226.416 0.792,228.697 1.100 M189.112 26.746 C 188.903 27.009,187.892 31.602,187.021 36.249 C 186.904 36.872,186.627 38.345,186.404 39.522 C 186.181 40.699,185.899 42.228,185.777 42.920 C 185.655 43.612,185.266 45.651,184.912 47.451 C 184.559 49.251,184.203 51.064,184.121 51.479 C 183.634 53.971,182.975 56.993,182.889 57.132 C 182.834 57.221,182.723 58.123,182.643 59.137 C 182.562 60.151,182.435 61.080,182.359 61.202 C 182.284 61.324,182.131 61.961,182.019 62.619 C 181.839 63.674,181.298 66.417,180.493 70.359 C 179.904 73.243,179.531 75.643,179.644 75.827 C 179.878 76.205,204.201 76.049,208.851 75.640 C 222.198 74.465,233.004 65.748,235.837 53.870 C 236.503 51.076,236.647 49.642,236.698 45.294 L 236.753 40.654 235.771 38.263 C 233.443 32.588,228.770 28.625,223.022 27.451 C 218.625 26.553,189.745 25.953,189.112 26.746 M76.907 182.568 C 76.984 182.879,77.014 185.513,76.975 188.420 L 76.904 193.707 59.840 193.771 L 42.776 193.836 42.932 201.575 C 43.017 205.832,43.124 209.437,43.169 209.588 C 43.225 209.777,47.046 209.916,55.542 210.038 C 62.997 210.144,67.932 210.311,68.081 210.460 C 68.312 210.690,69.679 215.690,70.212 218.250 C 70.342 218.874,70.567 219.694,70.711 220.073 C 71.434 221.971,71.038 222.023,56.065 222.025 C 46.059 222.026,43.261 222.095,43.184 222.341 C 43.131 222.514,43.015 226.138,42.928 230.395 L 42.769 238.134 59.836 238.198 L 76.904 238.263 77.030 242.536 L 77.155 246.809 79.952 243.291 C 83.141 239.280,86.678 234.908,89.112 231.970 C 91.130 229.532,92.889 227.159,92.889 226.871 C 92.889 226.660,90.617 223.624,89.002 221.674 C 88.531 221.107,87.222 219.509,86.092 218.125 C 84.963 216.740,83.787 215.324,83.479 214.978 C 82.866 214.288,80.221 210.991,79.421 209.920 C 79.144 209.549,77.637 207.630,76.072 205.656 C 74.074 203.136,73.306 201.987,73.492 201.800 C 73.660 201.632,76.261 201.495,80.555 201.428 L 87.351 201.322 88.250 202.297 C 88.745 202.834,89.671 204.009,90.308 204.909 C 91.361 206.395,96.176 212.625,97.215 213.845 C 97.451 214.122,98.245 215.189,98.979 216.216 C 100.700 218.622,100.655 218.621,102.374 216.320 C 103.180 215.241,104.032 214.130,104.269 213.850 C 104.505 213.571,106.123 211.473,107.863 209.188 C 109.603 206.904,111.666 204.196,112.447 203.172 L 113.867 201.309 118.019 201.473 C 120.302 201.563,123.568 201.636,125.276 201.636 C 128.698 201.636,128.739 201.662,127.565 203.078 C 127.115 203.621,126.350 204.560,125.865 205.165 C 125.381 205.770,124.412 206.951,123.712 207.789 C 122.275 209.512,118.761 213.873,117.810 215.114 C 117.464 215.566,115.705 217.731,113.900 219.925 C 107.895 227.229,108.045 226.954,109.329 228.320 C 111.237 230.348,126.117 249.000,126.117 249.363 C 126.117 249.682,121.173 249.969,115.658 249.969 C 111.432 249.969,111.996 250.292,108.854 246.067 C 107.619 244.405,106.542 242.989,106.460 242.920 C 106.379 242.851,105.704 241.945,104.960 240.906 C 104.216 239.868,103.461 238.928,103.282 238.817 C 103.104 238.706,102.958 238.511,102.958 238.384 C 102.958 238.256,102.450 237.611,101.830 236.949 L 100.701 235.746 100.004 236.501 C 99.621 236.916,98.798 237.936,98.175 238.767 C 97.552 239.597,96.898 240.429,96.722 240.615 C 96.547 240.800,95.616 242.046,94.655 243.384 C 93.693 244.721,92.247 246.665,91.441 247.703 L 89.975 249.591 60.784 249.751 C 44.728 249.839,31.507 249.861,31.403 249.799 C 31.170 249.661,31.149 182.402,31.382 182.169 C 31.475 182.077,41.724 182.001,54.159 182.001 L 76.768 182.001 76.907 182.568 M142.903 188.995 C 143.118 189.131,143.252 191.694,143.382 198.148 L 143.562 207.111 146.860 207.332 L 150.157 207.552 151.564 213.152 C 152.337 216.232,152.913 218.809,152.843 218.879 C 152.774 218.949,150.628 219.006,148.076 219.006 L 143.435 219.006 143.546 227.250 C 143.695 238.312,143.431 237.912,150.716 238.093 C 153.516 238.162,155.133 238.301,155.271 238.483 C 155.605 238.926,158.140 249.496,157.956 249.679 C 157.689 249.945,145.500 249.738,143.990 249.443 C 138.944 248.455,134.219 244.033,132.315 238.515 C 131.528 236.232,130.917 196.610,131.610 192.709 C 131.808 191.589,132.407 191.340,138.326 189.913 C 139.711 189.580,141.183 189.202,141.598 189.074 C 142.577 188.773,142.555 188.774,142.903 188.995 M302.922 189.994 C 303.008 190.513,303.079 194.591,303.081 199.056 L 303.084 207.174 305.790 207.199 C 309.184 207.231,309.664 207.360,309.932 208.315 C 310.735 211.187,312.456 217.963,312.487 218.376 C 312.522 218.858,312.325 218.886,307.867 219.020 C 305.305 219.097,303.170 219.182,303.121 219.209 C 303.072 219.236,303.073 222.854,303.123 227.250 C 303.250 238.315,303.000 237.922,310.006 238.087 C 314.635 238.197,315.167 238.313,315.167 239.220 C 315.167 239.505,315.281 240.086,315.420 240.511 C 316.232 242.988,317.511 249.135,317.289 249.494 C 317.100 249.800,304.478 249.765,303.132 249.454 C 298.435 248.371,294.173 244.298,292.080 238.892 C 291.080 236.312,290.393 192.384,291.340 191.599 C 291.526 191.444,292.971 191.020,294.549 190.657 C 296.128 190.293,298.269 189.797,299.308 189.553 C 302.387 188.831,302.737 188.874,302.922 189.994 M25.871 204.415 C 25.969 210.717,25.824 211.519,24.541 211.798 C 19.006 213.002,15.901 215.181,13.345 219.655 L 12.216 221.632 12.060 235.562 C 11.966 243.958,11.808 249.589,11.661 249.736 C 11.516 249.881,9.207 249.951,5.898 249.911 L 0.378 249.843 0.452 225.686 C 0.494 212.399,0.588 201.468,0.662 201.394 C 0.736 201.319,3.262 201.223,6.276 201.179 L 11.756 201.098 11.911 202.584 C 12.161 204.974,12.200 205.008,13.531 203.992 C 15.883 202.197,19.483 200.798,23.411 200.152 C 25.990 199.728,25.793 199.386,25.871 204.415 M187.733 205.716 L 187.800 211.432 186.852 211.674 C 186.330 211.807,185.507 211.988,185.022 212.075 C 181.073 212.789,177.209 215.831,175.123 219.866 L 174.072 221.901 173.946 235.662 C 173.877 243.231,173.763 249.476,173.694 249.540 C 173.625 249.603,170.963 249.698,167.778 249.749 L 161.989 249.843 161.904 248.081 C 161.857 247.111,161.899 236.208,161.997 223.851 L 162.176 201.385 167.908 201.385 C 174.360 201.385,173.946 201.245,173.946 203.419 C 173.946 204.891,173.857 204.868,175.514 203.810 C 178.347 202.002,182.261 200.521,185.274 200.117 C 187.900 199.765,187.656 199.210,187.733 205.716 M399.187 205.726 L 399.119 211.578 397.175 211.988 C 391.455 213.195,387.004 217.404,385.896 222.656 C 385.676 223.698,385.530 228.147,385.425 237.004 L 385.274 249.843 379.610 249.843 L 373.946 249.843 373.882 225.488 L 373.818 201.133 379.609 201.133 L 385.400 201.133 385.400 202.777 C 385.400 204.836,385.652 204.960,387.437 203.780 C 390.501 201.753,395.342 200.101,398.809 199.900 C 399.224 199.876,399.250 200.264,399.187 205.726 M275.706 200.638 C 276.226 200.771,277.133 201.005,277.722 201.157 C 281.414 202.108,288.483 206.282,288.483 207.511 C 288.483 207.675,286.687 209.604,284.491 211.796 L 280.498 215.783 279.267 214.874 C 278.590 214.374,277.923 213.880,277.785 213.776 C 274.980 211.672,268.546 211.502,264.569 213.427 C 263.807 213.795,263.071 214.178,262.933 214.277 C 251.918 222.155,257.052 239.155,270.468 239.230 C 274.425 239.253,276.823 238.407,280.343 235.750 C 280.713 235.470,282.054 236.708,286.253 241.208 L 288.767 243.901 286.756 245.487 C 279.696 251.059,270.037 252.653,261.899 249.590 C 244.260 242.951,239.452 220.264,252.951 207.368 C 258.937 201.648,268.569 198.800,275.706 200.638 M348.899 200.903 C 357.790 202.966,365.399 210.458,367.665 219.383 C 368.385 222.218,368.311 230.174,367.546 232.222 C 367.236 233.052,366.866 234.128,366.724 234.613 C 363.581 245.374,348.886 253.510,337.823 250.615 C 336.923 250.380,335.782 250.085,335.289 249.961 C 327.839 248.086,321.195 241.299,318.363 232.671 C 317.233 229.228,317.403 220.470,318.661 217.369 C 323.889 204.475,335.960 197.902,348.899 200.903 M219.257 200.846 C 221.372 201.277,224.731 202.827,227.112 204.470 C 227.711 204.883,227.841 204.658,227.997 202.942 C 228.165 201.087,227.966 201.139,234.803 201.136 L 239.650 201.133 239.586 225.488 L 239.522 249.843 233.858 249.843 L 228.194 249.843 228.053 236.375 C 227.928 224.410,227.864 222.785,227.477 221.805 C 225.091 215.769,220.936 212.427,215.326 212.031 C 212.399 211.825,210.463 212.243,207.174 213.791 C 206.246 214.229,202.546 217.985,202.038 219.006 C 196.662 229.825,205.060 241.073,217.070 239.136 C 219.503 238.743,219.404 238.658,220.975 242.492 C 223.708 249.163,223.707 249.076,221.020 249.918 C 210.358 253.255,197.853 248.913,192.893 240.151 C 192.540 239.528,192.010 238.622,191.714 238.137 C 191.144 237.202,189.841 233.984,189.268 232.096 C 188.700 230.226,188.803 220.851,189.414 218.754 C 192.098 209.547,198.588 203.105,207.552 200.749 C 209.075 200.348,217.148 200.415,219.257 200.846 M340.717 212.103 C 340.441 212.170,339.704 212.351,339.081 212.505 C 331.105 214.474,326.771 223.995,330.440 231.488 C 335.556 241.936,350.393 241.873,355.403 231.382 L 356.325 229.452 356.325 225.551 C 356.325 221.132,356.096 220.380,353.813 217.279 C 351.132 213.636,344.767 211.120,340.717 212.103 " stroke="none" fill="#0d0f0c" fill-rule="evenodd"></path><path id="path2" d="M166.079 0.681 C 166.391 0.741,166.901 0.741,167.212 0.681 C 167.524 0.621,167.269 0.572,166.646 0.572 C 166.023 0.572,165.768 0.621,166.079 0.681 M208.987 0.691 C 210.191 0.737,212.230 0.737,213.518 0.691 C 214.805 0.645,213.820 0.608,211.328 0.607 C 208.836 0.607,207.782 0.645,208.987 0.691 M225.239 0.933 C 225.552 0.993,226.005 0.991,226.246 0.928 C 226.487 0.865,226.230 0.816,225.677 0.819 C 225.123 0.821,224.926 0.873,225.239 0.933 M213.153 26.614 C 213.603 26.670,214.339 26.670,214.789 26.614 C 215.239 26.558,214.871 26.512,213.971 26.512 C 213.071 26.512,212.703 26.558,213.153 26.614 M216.803 26.857 C 217.045 26.920,217.442 26.920,217.684 26.857 C 217.926 26.794,217.728 26.742,217.244 26.742 C 216.759 26.742,216.561 26.794,216.803 26.857 M231.844 32.049 C 231.844 32.092,232.212 32.460,232.662 32.867 L 233.480 33.606 232.741 32.788 C 232.052 32.025,231.844 31.854,231.844 32.049 M266.910 38.263 C 266.910 39.025,266.957 39.336,267.015 38.955 C 267.072 38.575,267.072 37.952,267.015 37.571 C 266.957 37.190,266.910 37.502,266.910 38.263 M266.917 42.417 C 266.918 43.386,266.964 43.751,267.018 43.229 C 267.073 42.707,267.072 41.914,267.016 41.467 C 266.961 41.020,266.916 41.447,266.917 42.417 M185.525 43.364 C 185.525 43.701,185.393 43.726,184.707 43.516 C 184.194 43.359,178.761 43.295,170.135 43.345 L 156.380 43.424 155.338 48.836 C 154.765 51.812,154.190 54.701,154.061 55.255 C 153.576 57.333,153.510 58.343,153.844 58.550 C 154.021 58.660,160.288 58.843,167.769 58.957 C 182.608 59.183,182.295 59.171,182.568 59.534 C 182.673 59.673,182.718 59.506,182.670 59.164 C 182.622 58.822,182.679 58.143,182.796 57.654 C 182.913 57.165,183.234 55.689,183.510 54.374 C 183.786 53.059,184.123 51.473,184.258 50.850 C 184.394 50.227,184.680 48.697,184.894 47.451 C 185.108 46.205,185.412 44.760,185.571 44.240 C 185.729 43.721,185.784 43.220,185.692 43.129 C 185.600 43.037,185.525 43.143,185.525 43.364 M236.690 46.696 C 236.693 47.250,236.745 47.447,236.805 47.134 C 236.865 46.820,236.863 46.367,236.800 46.127 C 236.737 45.886,236.687 46.142,236.690 46.696 M228.810 66.394 L 227.942 67.338 228.886 66.470 C 229.765 65.663,229.946 65.450,229.754 65.450 C 229.712 65.450,229.287 65.875,228.810 66.394 M209.251 75.693 C 209.493 75.756,209.890 75.756,210.132 75.693 C 210.374 75.629,210.176 75.578,209.692 75.578 C 209.207 75.578,209.009 75.629,209.251 75.693 M182.190 76.207 C 182.778 76.260,183.741 76.260,184.330 76.207 C 184.918 76.154,184.437 76.111,183.260 76.111 C 182.083 76.111,181.602 76.154,182.190 76.207 M247.703 84.959 C 247.091 85.582,246.648 86.092,246.717 86.092 C 246.786 86.092,247.343 85.582,247.955 84.959 C 248.566 84.336,249.010 83.826,248.941 83.826 C 248.871 83.826,248.314 84.336,247.703 84.959 M191.252 102.137 C 192.118 102.186,193.534 102.186,194.399 102.137 C 195.264 102.088,194.556 102.048,192.826 102.048 C 191.095 102.048,190.387 102.088,191.252 102.137 M174.360 102.396 C 174.294 102.502,174.684 102.547,175.226 102.495 C 175.768 102.444,176.211 102.357,176.211 102.302 C 176.211 102.115,174.479 102.203,174.360 102.396 M137.256 166.329 C 138.191 166.377,139.720 166.377,140.654 166.329 C 141.589 166.280,140.824 166.241,138.955 166.241 C 137.086 166.241,136.322 166.280,137.256 166.329 M248.533 166.330 C 249.612 166.377,251.311 166.377,252.309 166.329 C 253.306 166.281,252.423 166.243,250.346 166.243 C 248.269 166.243,247.453 166.282,248.533 166.330 M31.379 182.190 C 31.274 182.361,47.291 182.359,68.722 182.186 C 73.222 182.150,66.687 182.093,54.200 182.061 C 41.713 182.028,31.444 182.086,31.379 182.190 M76.777 188.094 C 76.708 191.237,76.739 193.721,76.846 193.614 C 76.952 193.507,77.009 190.936,76.971 187.899 L 76.903 182.379 76.777 188.094 M302.915 191.945 C 302.916 192.914,302.961 193.279,303.016 192.757 C 303.070 192.235,303.069 191.442,303.014 190.995 C 302.958 190.548,302.913 190.975,302.915 191.945 M291.120 208.559 C 291.120 217.835,291.151 221.593,291.189 216.911 C 291.228 212.228,291.228 204.638,291.189 200.045 C 291.151 195.451,291.119 199.283,291.120 208.559 M131.509 198.238 C 131.509 201.007,131.546 202.174,131.591 200.832 C 131.636 199.489,131.636 197.223,131.591 195.797 C 131.546 194.370,131.509 195.469,131.509 198.238 M143.342 201.888 C 143.342 204.865,143.378 206.082,143.423 204.594 C 143.467 203.106,143.467 200.670,143.423 199.182 C 143.378 197.694,143.342 198.911,143.342 201.888 M42.896 203.524 C 42.896 205.739,42.935 206.612,42.982 205.463 C 43.028 204.314,43.028 202.502,42.981 201.435 C 42.934 200.369,42.896 201.309,42.896 203.524 M25.676 204.858 L 25.801 209.817 25.871 205.053 C 25.909 202.432,25.852 200.201,25.745 200.093 C 25.638 199.986,25.607 202.130,25.676 204.858 M271.051 200.304 C 271.362 200.364,271.872 200.364,272.184 200.304 C 272.495 200.244,272.240 200.194,271.617 200.194 C 270.994 200.194,270.739 200.244,271.051 200.304 M341.792 200.308 C 342.244 200.364,342.924 200.363,343.302 200.306 C 343.680 200.248,343.310 200.202,342.480 200.204 C 341.649 200.205,341.339 200.252,341.792 200.308 M2.715 201.319 C 3.446 201.370,4.579 201.369,5.232 201.317 C 5.885 201.266,5.286 201.224,3.902 201.225 C 2.517 201.225,1.983 201.268,2.715 201.319 M230.522 201.318 C 231.249 201.369,232.439 201.369,233.166 201.318 C 233.892 201.268,233.298 201.226,231.844 201.226 C 230.390 201.226,229.795 201.268,230.522 201.318 M78.869 201.573 C 80.503 201.617,83.109 201.616,84.659 201.572 C 86.208 201.528,84.871 201.492,81.687 201.492 C 78.502 201.493,77.234 201.529,78.869 201.573 M116.614 201.568 C 117.133 201.622,117.983 201.622,118.502 201.568 C 119.021 201.514,118.597 201.469,117.558 201.469 C 116.520 201.469,116.095 201.514,116.614 201.568 M173.766 203.021 C 173.768 203.713,173.817 203.966,173.875 203.584 C 173.933 203.201,173.931 202.635,173.871 202.325 C 173.812 202.015,173.764 202.329,173.766 203.021 M227.836 204.070 C 227.825 204.370,227.675 204.672,227.502 204.742 C 227.255 204.841,227.257 204.873,227.509 204.889 C 227.892 204.912,228.169 204.305,227.986 203.847 C 227.914 203.670,227.847 203.770,227.836 204.070 M195.956 207.237 L 195.217 208.055 196.035 207.316 C 196.485 206.909,196.853 206.541,196.853 206.498 C 196.853 206.303,196.646 206.475,195.956 207.237 M359.975 206.750 C 359.975 206.793,360.343 207.161,360.793 207.568 L 361.611 208.307 360.872 207.489 C 360.183 206.726,359.975 206.555,359.975 206.750 M145.563 207.348 C 145.806 207.411,146.202 207.411,146.444 207.348 C 146.687 207.285,146.488 207.233,146.004 207.233 C 145.519 207.233,145.321 207.285,145.563 207.348 M43.263 210.010 C 43.369 210.116,46.904 210.172,51.118 210.136 L 58.779 210.069 50.925 209.943 C 46.605 209.874,43.157 209.904,43.263 210.010 M281.387 214.606 C 280.737 215.226,280.289 215.733,280.390 215.733 C 280.492 215.733,281.075 215.223,281.687 214.600 C 283.120 213.140,282.919 213.144,281.387 214.606 M131.516 222.278 C 131.516 226.778,131.550 228.619,131.592 226.369 C 131.633 224.119,131.633 220.437,131.592 218.188 C 131.550 215.938,131.516 217.778,131.516 222.278 M204.405 215.859 C 203.794 216.482,203.350 216.992,203.419 216.992 C 203.489 216.992,204.046 216.482,204.657 215.859 C 205.268 215.236,205.712 214.726,205.643 214.726 C 205.574 214.726,205.017 215.236,204.405 215.859 M389.541 215.796 L 388.546 216.866 389.616 215.871 C 390.611 214.945,390.802 214.726,390.611 214.726 C 390.570 214.726,390.089 215.208,389.541 215.796 M143.344 225.299 C 143.344 228.829,143.380 230.274,143.423 228.508 C 143.466 226.743,143.466 223.855,143.423 222.089 C 143.380 220.324,143.344 221.768,143.344 225.299 M0.375 235.179 L 0.378 249.843 5.979 249.850 L 11.580 249.857 6.044 249.782 L 0.508 249.707 0.439 235.112 L 0.371 220.516 0.375 235.179 M12.152 222.530 C 12.152 223.153,12.201 223.408,12.261 223.096 C 12.321 222.785,12.321 222.275,12.261 221.963 C 12.201 221.652,12.152 221.907,12.152 222.530 M356.535 225.047 C 356.535 226.086,356.580 226.510,356.634 225.991 C 356.688 225.472,356.688 224.622,356.634 224.103 C 356.580 223.584,356.535 224.009,356.535 225.047 M161.976 232.096 C 161.976 236.734,162.010 238.631,162.051 236.312 C 162.093 233.993,162.093 230.198,162.051 227.879 C 162.010 225.560,161.976 227.458,161.976 232.096 M245.275 225.928 C 245.274 227.174,245.317 227.716,245.370 227.132 C 245.422 226.547,245.423 225.528,245.371 224.866 C 245.319 224.204,245.276 224.682,245.275 225.928 M368.120 225.928 C 368.119 227.174,368.161 227.716,368.214 227.132 C 368.267 226.547,368.268 225.528,368.216 224.866 C 368.164 224.204,368.120 224.682,368.120 225.928 M42.897 228.068 C 42.897 230.352,42.935 231.287,42.981 230.145 C 43.028 229.003,43.028 227.133,42.981 225.991 C 42.935 224.849,42.897 225.784,42.897 228.068 M385.478 227.439 C 385.479 228.269,385.526 228.579,385.582 228.126 C 385.638 227.674,385.637 226.994,385.579 226.616 C 385.522 226.238,385.476 226.608,385.478 227.439 M173.808 239.648 C 173.808 244.840,173.842 246.963,173.883 244.368 C 173.924 241.772,173.924 237.524,173.883 234.928 C 173.842 232.332,173.808 234.456,173.808 239.648 M11.940 238.892 C 11.940 242.284,11.976 243.672,12.019 241.976 C 12.063 240.280,12.063 237.505,12.019 235.809 C 11.976 234.113,11.940 235.500,11.940 238.892 M59.975 238.325 L 76.778 238.392 76.778 242.529 C 76.778 244.805,76.863 246.719,76.967 246.784 C 77.070 246.848,77.099 244.957,77.030 242.582 L 76.904 238.263 60.038 238.260 L 43.172 238.258 59.975 238.325 M150.472 238.324 C 151.337 238.373,152.753 238.373,153.619 238.324 C 154.484 238.274,153.776 238.234,152.045 238.234 C 150.315 238.234,149.607 238.274,150.472 238.324 M312.712 238.317 C 313.093 238.375,313.716 238.375,314.097 238.317 C 314.478 238.260,314.166 238.213,313.405 238.213 C 312.643 238.213,312.332 238.260,312.712 238.317 M284.949 239.962 C 285.992 241.074,286.218 241.274,286.218 241.085 C 286.218 241.044,285.680 240.506,285.022 239.889 L 283.826 238.767 284.949 239.962 M342.165 239.324 C 342.546 239.382,343.169 239.382,343.549 239.324 C 343.930 239.267,343.619 239.220,342.857 239.220 C 342.096 239.220,341.784 239.267,342.165 239.324 M31.433 249.784 C 31.539 249.890,34.564 249.947,38.154 249.910 L 44.682 249.842 37.961 249.716 C 34.264 249.647,31.326 249.678,31.433 249.784 M145.189 249.643 C 145.502 249.703,145.955 249.701,146.196 249.638 C 146.436 249.575,146.180 249.526,145.626 249.529 C 145.072 249.531,144.875 249.583,145.189 249.643 M162.090 249.794 C 162.202 249.906,162.905 249.961,163.652 249.916 L 165.009 249.836 163.448 249.713 C 162.589 249.646,161.978 249.682,162.090 249.794 M228.233 249.780 C 228.297 249.884,230.828 249.969,233.858 249.969 C 236.887 249.969,239.419 249.884,239.483 249.780 C 239.547 249.676,237.016 249.591,233.858 249.591 C 230.700 249.591,228.169 249.676,228.233 249.780 M373.985 249.780 C 374.049 249.884,376.580 249.969,379.610 249.969 C 382.639 249.969,385.171 249.884,385.235 249.780 C 385.299 249.676,382.768 249.591,379.610 249.591 C 376.452 249.591,373.921 249.676,373.985 249.780 M114.349 249.904 C 115.699 249.950,117.907 249.950,119.257 249.904 C 120.607 249.859,119.503 249.822,116.803 249.822 C 114.103 249.822,112.999 249.859,114.349 249.904 M153.123 249.902 C 153.785 249.954,154.804 249.954,155.388 249.901 C 155.973 249.848,155.431 249.805,154.185 249.806 C 152.939 249.807,152.461 249.850,153.123 249.902 " stroke="none" fill="#eb1d25" fill-rule="evenodd"></path></g></svg>